<svg xmlns="http://www.w3.org/2000/svg" viewBox="0 0 384 512">
<path fill="currentColor" d="M318.7 268.7c-.3-37.7 16.5-66.2 50.3-87.2-18.9-26.8-47.5-41.7-85.8-44.5-35.9-2.7-75.2 21.1-89.4 21.1-14.5 0-47.9-20.2-74.2-20.2C65.8 138 0 183.6 0 283.7c0 26.3 4.8 53.3 14.5 80.6 12.9 37.8 59.5 130.4 108.1 129 26.9-.7 46-19.2 80.9-19.2 34.4 0 52.8 19.2 80.9 19.2 48.9.7 91.3-85.1 104.1-123 0 0-90.3-34.6-90.3-102.6zM260.9 80.2c26.3-31.5 23.9-60 23.1-70.2-23.1 1.3-50 15.5-65.3 33.2-17.1 19.2-27.6 43.2-25.4 69.6 26 2 49.8-11 67.6-32.6z"/>
</svg>
